# xmcd CD database file
#
# Track frame offsets:
#	150
#	15660
#	37477
#	56457
#	72116
#	100852
#	116186
#	134879
#	150048
#	167053
#
# Disc length: 2692 seconds
#
# Revision: 2
# Processed by: cddbd v1.5.2PL0 Copyright (c) Steve Scherf et al.
# Submitted via: CDex 1.75
#
DISCID=870a820a
DTITLE=???? - ????
DYEAR=1998
DGENRE=JPop
TTITLE0=?????????
TTITLE1=?????????
TTITLE2=?????
TTITLE3=??????
TTITLE4=????
TTITLE5=??????
TTITLE6=??????
TTITLE7=?????????????
TTITLE8=?
TTITLE9=DAWN
EXTD=YEAR: 1998
EXTT0=
EXTT1=
EXTT2=
EXTT3=
EXTT4=
EXTT5=
EXTT6=
EXTT7=
EXTT8=
EXTT9=
PLAYORDER=
